<?xml version="1.0" standalone="no"?>
<!DOCTYPE svg PUBLIC "-//W3C//DTD SVG 20010904//EN"
 "http://www.w3.org/TR/2001/REC-SVG-20010904/DTD/svg10.dtd">
<svg version="1.0" xmlns="http://www.w3.org/2000/svg"
 width="400.000000pt" height="400.000000pt" viewBox="0 0 400.000000 400.000000"
 preserveAspectRatio="xMidYMid meet">
<metadata>
Created by potrace 1.11, written by Peter Selinger 2001-2013
</metadata>
<g transform="translate(0.000000,400.000000) scale(0.100000,-0.100000)"
fill="#000000" stroke="none">
<path d="M657 2963 c-4 -3 -7 -15 -7 -25 0 -26 24 -17 28 10 3 21 -8 29 -21
15z"/>
<path d="M3161 2654 c-213 -58 -346 -207 -387 -434 -50 -278 53 -537 255 -644
74 -39 171 -66 239 -66 l43 0 -7 48 c-4 26 -8 65 -9 87 -1 22 -3 42 -5 45 -1
3 -3 11 -4 19 0 8 -27 30 -58 48 -63 37 -96 74 -130 149 -20 43 -23 65 -23
179 0 112 3 138 23 187 28 68 87 132 151 161 l46 22 0 105 0 105 -40 2 c-22 1
-64 -5 -94 -13z"/>
<path d="M626 2553 c-32 -92 -256 -709 -347 -956 l-29 -78 151 3 150 3 37 110
37 110 209 0 209 0 37 -110 37 -110 155 -3 156 -2 -63 182 c-72 211 -198 553
-227 616 -10 24 -41 103 -68 175 -26 73 -51 140 -55 150 -6 15 -25 17 -179 17
l-172 0 -38 -107z m299 -463 c25 -68 45 -126 45 -127 0 -2 -61 -3 -135 -3 -74
0 -135 2 -135 4 0 9 102 293 115 323 8 17 15 37 16 45 0 15 28 -56 94 -242z"/>
<path d="M1600 2090 l0 -570 145 0 145 0 0 210 0 210 65 0 66 0 156 -210 156
-210 178 0 c99 0 179 2 179 5 0 5 -321 424 -357 466 -12 15 -8 20 35 47 71 43
121 97 151 161 35 75 37 202 5 271 -45 95 -145 162 -271 180 -37 5 -200 10
-360 10 l-293 0 0 -570z m577 337 c92 -49 82 -193 -16 -251 -28 -16 -58 -21
-153 -24 l-118 -4 0 152 0 152 128 -4 c94 -3 135 -9 159 -21z"/>
<path d="M605 1400 c3 -5 8 -10 11 -10 2 0 4 5 4 10 0 6 -5 10 -11 10 -5 0 -7
-4 -4 -10z"/>
<path d="M664 1274 c-76 -37 -54 -111 23 -79 39 16 72 73 51 86 -19 12 -39 11
-74 -7z"/>
<path d="M1482 761 c10 -3 -11 -7 -45 -7 -68 -1 -256 -60 -382 -119 -67 -32
-69 -33 -35 -35 l35 -1 -30 -13 c-27 -12 -22 -13 60 -10 64 2 136 15 245 43
217 56 323 73 419 69 67 -2 78 -1 64 10 -31 22 -223 15 -348 -13 -129 -29
-139 -30 -65 -5 90 31 224 60 281 61 94 1 23 16 -101 21 -63 3 -107 3 -98 -1z
m-337 -171 c-11 -5 -29 -8 -40 -8 -16 0 -15 2 5 8 34 11 60 11 35 0z"/>
<path d="M2367 760 c-86 -7 -131 -20 -68 -20 40 0 200 -35 271 -60 74 -25 62
-24 -68 5 -144 33 -297 35 -357 5 -22 -11 -31 -18 -20 -14 11 3 52 8 91 11 85
7 210 -13 424 -68 175 -44 216 -49 155 -19 -22 11 -31 18 -20 14 72 -21 169
-43 174 -39 3 3 -5 8 -17 12 -28 7 -28 23 0 23 37 0 9 16 -102 60 -150 58
-284 93 -329 86 -26 -5 -32 -4 -21 3 17 12 25 12 -113 1z m340 -126 c-3 -3
-12 -4 -19 -1 -8 3 -5 6 6 6 11 1 17 -2 13 -5z m40 -10 c-3 -3 -12 -4 -19 -1
-8 3 -5 6 6 6 11 1 17 -2 13 -5z"/>
<path d="M2053 628 c-17 -18 -39 -49 -48 -68 l-18 -34 -23 46 c-22 44 -62 83
-73 73 -3 -3 6 -13 18 -22 13 -9 36 -43 51 -76 l27 -60 26 56 c17 38 39 65 68
86 31 23 37 31 22 31 -10 0 -33 -15 -50 -32z"/>
<path d="M1400 625 c-82 -17 -207 -50 -240 -64 -24 -9 -24 -10 -3 -10 30 -1
230 42 313 68 55 16 60 19 30 19 -19 0 -64 -6 -100 -13z"/>
<path d="M2500 620 c78 -25 272 -70 297 -70 17 1 17 1 -1 12 -27 15 -240 66
-306 73 l-55 5 65 -20z"/>
<path d="M1630 443 c-14 -2 -77 -20 -140 -39 -158 -47 -261 -54 -783 -54 -434
0 -438 0 -432 20 3 11 4 20 1 20 -4 0 -54 -18 -114 -39 -59 -22 -118 -41 -132
-43 l-25 -3 -3 -152 -3 -153 1538 0 1538 1 -25 20 c-14 11 -32 25 -40 32 -9 7
-22 17 -30 24 -14 10 -87 21 -255 39 -33 4 -67 10 -76 15 -8 4 -55 13 -104 20
-87 12 -88 13 -66 31 39 31 87 36 391 43 162 3 313 8 335 10 22 2 179 7 349
10 170 4 315 9 323 12 24 10 13 20 -29 28 -39 7 -41 8 -18 15 23 7 21 9 -30
32 -85 39 -101 43 -93 22 6 -16 -24 -16 -468 -11 -271 3 -512 10 -563 17 -50
7 -140 27 -200 46 -174 53 -266 43 -311 -36 -28 -49 -58 -43 -84 15 -22 49
-45 65 -94 65 -43 0 -82 -30 -97 -75 -6 -19 -18 -35 -25 -35 -7 0 -20 -2 -27
-5 -9 -4 -18 7 -27 30 -19 52 -107 90 -181 78z m410 -33 c20 -20 27 -50 11
-50 -5 0 -14 7 -21 15 -16 19 -60 19 -88 -1 -21 -14 -22 -14 -22 10 0 14 8 30
18 35 29 17 80 13 102 -9z m-140 -105 c0 -7 -6 -15 -12 -18 -20 -7 -555 3
-633 12 -48 6 31 9 253 9 178 0 325 2 328 4 11 12 64 6 64 -7z m410 4 c91 0
219 -3 285 -7 114 -7 107 -8 -145 -14 -222 -6 -321 -5 -372 1 -5 1 -8 7 -8 15
0 11 9 13 38 9 20 -3 111 -5 202 -4z m-1983 -15 c-3 -3 -12 -4 -19 -1 -8 3 -5
6 6 6 11 1 17 -2 13 -5z m161 -1 c-26 -2 -71 -2 -100 0 -29 2 -8 3 47 3 55 0
79 -1 53 -3z m3257 -3 c-25 -11 -242 -11 -310 0 -34 5 11 8 140 8 114 0 182
-3 170 -8z"/>
</g>
</svg>
