<svg xmlns="http://www.w3.org/2000/svg" viewBox="0 0 140 50"><defs><linearGradient id="a" x1="50%" x2="50%" y1="0%" y2="100%"><stop stop-color="#1E79AF" offset="0%"/><stop stop-color="#63FFD3" offset="100%"/></linearGradient><linearGradient id="b" x1="84.718%" x2="5.244%" y1="14.446%" y2="96.562%"><stop stop-color="#DC4057" offset="0%"/><stop stop-color="#9E36BB" offset="100%"/></linearGradient><linearGradient id="c" x1="50%" x2="50%" y1="0%" y2="97.826%"><stop stop-color="#FF9676" offset="0%"/><stop stop-color="#FFD074" offset="100%"/></linearGradient><linearGradient id="d" x1="17.444%" y1="0%" y2="100%"><stop stop-color="#51C6AD" offset="0%"/><stop stop-color="#D5FFA1" offset="100%"/></linearGradient></defs><g fill="none" fill-rule="evenodd"><rect width="140" height="50" fill="#000" rx="4"/><path fill="url(#a)" d="M.876.857c-.395.125-.65.527-.65 1.136L.23 21.166c0 .602.246 1 .63 1.13L11.498 11.57.876.856" transform="translate(10.462 19.522)"/><path fill="url(#b)" d="M.86 22.297c.275.095.62.05.998-.158l12.982-7.2-3.342-3.37L.86 22.29" transform="translate(10.462 19.522)"/><path fill="url(#c)" d="M14.842 14.94l4.427-2.455c.89-.5.89-1.312 0-1.81L14.82 8.21l-3.328 3.357 3.344 3.372" transform="translate(10.462 19.522)"/><path fill="url(#d)" d="M14.825 8.21L1.858 1.02C1.49.82 1.15.77.878.858l10.62 10.71 3.327-3.356" transform="translate(10.462 19.522)"/><path fill="#FFF" d="M48.522 35.78l-2.75.636c-1.113.177-2.113.333-3.172.333-5.304 0-7.324-3.94-7.324-7.02 0-3.76 2.863-7.25 7.766-7.25 1.037 0 2.035.15 2.944.4 1.44.41 2.115.91 2.536 1.2l-1.597 1.53-.673.15.48-.77c-.65-.64-1.846-1.83-4.114-1.83-3.033 0-5.322 2.32-5.322 5.72 0 3.64 2.613 7.07 6.803 7.07 1.23 0 1.86-.25 2.44-.49v-3.12l-2.91.16 1.54-.84h4.07l-.5.482c-.14.11-.15.15-.19.31-.02.17-.04.73-.04.93v2.36zm6.306.718c-3.26 0-5.002-2.56-5.002-4.877 0-2.7 2.193-5.02 5.31-5.02 3.014 0 4.9 2.38 4.9 4.88 0 2.44-1.863 5.03-5.208 5.03zm2.565-1.673c.492-.662.615-1.488.615-2.293 0-1.82-.863-5.295-3.404-5.295-.68 0-1.353.267-1.845.702-.81.72-.95 1.63-.95 2.52 0 2.04 1 5.41 3.48 5.41.8 0 1.61-.39 2.09-1.06zm8.35 1.673c-3.26 0-5.005-2.56-5.005-4.877 0-2.7 2.193-5.02 5.31-5.02 3.016 0 4.905 2.38 4.905 4.88 0 2.44-1.867 5.03-5.21 5.03zm2.564-1.673c.495-.662.616-1.488.616-2.293 0-1.82-.86-5.295-3.404-5.295-.68 0-1.36.267-1.85.702-.8.72-.95 1.63-.95 2.52 0 2.04 1 5.41 3.49 5.41.8 0 1.62-.39 2.09-1.06zm10.15-7.215c.47.39 1.454 1.22 1.454 2.79 0 1.532-.85 2.254-1.72 2.937-.26.27-.57.56-.57 1.012 0 .45.31.7.54.89l.74.57c.9.76 1.72 1.47 1.72 2.9 0 1.94-1.86 3.9-5.39 3.9-2.97 0-4.41-1.43-4.41-2.96 0-.75.37-1.8 1.58-2.53 1.27-.78 3-.89 3.92-.95-.28-.38-.61-.77-.61-1.41 0-.35.11-.56.21-.81-.22.02-.45.04-.65.04-2.18 0-3.41-1.638-3.41-3.25 0-.95.43-2.01 1.316-2.77 1.17-.974 2.565-1.14 3.67-1.14h4.23l-1.31.746h-1.27zm-1.453 9.18c-.17-.02-.27-.02-.472-.02-.186 0-1.294.04-2.152.33-.454.168-1.766.662-1.766 2.13 0 1.467 1.416 2.524 3.608 2.524 1.97 0 3.014-.95 3.014-2.233 0-1.05-.676-1.61-2.232-2.73zm.59-3.928c.473-.478.515-1.137.515-1.512 0-1.487-.88-3.804-2.59-3.804-.53 0-1.11.27-1.44.686-.35.43-.45.99-.45 1.527 0 1.38.8 3.68 2.56 3.68.51 0 1.07-.25 1.39-.58zm6.468 1.82c0 .804.142.93.816.992.35.042.7.06 1.048.102l-.76.455h-3.613c.474-.62.556-.68.556-1.09v-.46l-.01-12.3h-1.6l1.53-.74h2.93c-.64.37-.83.6-.91 1.32l-.01 11.73zm10.08.16l-.98.934c-.227.126-.453.27-.677.375-.682.32-1.375.39-1.99.39-.655 0-1.682-.04-2.73-.8-1.456-1.03-2.092-2.81-2.092-4.36 0-3.2 2.588-4.78 4.7-4.78.737 0 1.495.19 2.112.58 1.024.69 1.29 1.57 1.436 2.05l-4.82 1.96-1.58.13c.52 2.63 2.28 4.16 4.23 4.16.98 0 1.7-.32 2.36-.65 0 0 .13-.07.04.03zm-2.908-5.23c.39-.142.595-.266.595-.554 0-.826-.93-1.78-2.04-1.78-.82 0-2.36.643-2.36 2.877 0 .35.04.72.06 1.092l3.73-1.634zm8.82 5.32v5.266h-1.038V26.794h1.038v1.527c.676-.98 1.91-1.76 3.345-1.76 2.57 0 4.3 1.97 4.3 5.09 0 3.1-1.74 5.11-4.31 5.11-1.36 0-2.57-.7-3.35-1.81zm6.535-3.297c0-2.347-1.22-4.138-3.37-4.138-1.34 0-2.62 1.06-3.17 1.982v4.29c.55.92 1.83 2.02 3.17 2.02 2.15 0 3.36-1.81 3.36-4.16zm2.53-8.542h1.03v13.404h-1.04V23.093zm9.64 13.375c-.07-.336-.12-.633-.16-.88-.03-.247-.05-.5-.05-.757-.36.53-.86.97-1.51 1.31-.65.35-1.26.52-2.1.52-1.01 0-1.8-.25-2.36-.76-.56-.5-.84-1.19-.84-2.06 0-.87.41-1.57 1.22-2.11.81-.54 1.86-.81 3.15-.81h2.42V29.7c0-.695-.24-1.24-.71-1.637-.47-.396-1.13-.597-1.99-.597-.786 0-1.42.183-1.9.54-.48.364-.72.815-.72 1.36h-1.066l-.02-.053c-.04-.733.29-1.376 1-1.93.7-.556 1.623-.835 2.76-.835 1.13 0 2.044.275 2.734.823.69.55 1.032 1.33 1.032 2.35v4.79c0 .35.013.68.06 1 .04.33.11.65.202.96h-1.196zm-3.68-.762c.88 0 1.51-.2 2.16-.59.64-.392 1.08-.9 1.31-1.518v-1.863h-2.43c-.93 0-1.7.207-2.31.625-.61.417-.92.922-.92 1.508 0 .553.19.996.58 1.33.39.34.92.508 1.59.508zm6.71 3.626c.22.1.6.16.84.16.63 0 1.07-.26 1.47-1.185l.75-1.73-4.09-9.783h1.16l3.5 8.48 3.47-8.48h1.17L125.1 38.63c-.516 1.22-1.33 1.81-2.447 1.81-.336 0-.778-.06-1.037-.14l.178-.964zm-86.6-27.29c0-2.082 1.55-3.42 3.47-3.42 1.29 0 2.13.614 2.66 1.367l-.94.54c-.36-.5-.98-.88-1.72-.88-1.31 0-2.28.99-2.28 2.39 0 1.37.97 2.38 2.28 2.38.67 0 1.27-.31 1.56-.6V12.8h-1.98v-1.02h3.13v2.47a3.593 3.593 0 0 1-2.72 1.21c-1.93 0-3.47-1.36-3.47-3.43zm7.62 3.3V8.73h4.53v1.022h-3.37v1.705h3.3v1.02h-3.3v1.844h3.37v1.03h-4.53zm7.74 0v-5.59h-2V8.73h5.16v1.022h-2v5.59h-1.16zm7.2-6.612h1.16v6.613h-1.16V8.73zm4.39 6.613v-5.59h-2V8.73h5.16v1.022h-2v5.59h-1.16zm6.9-3.3c0-1.974 1.39-3.422 3.38-3.422 1.97 0 3.38 1.45 3.38 3.43 0 1.97-1.41 3.42-3.38 3.42-1.99 0-3.38-1.45-3.38-3.42zm5.57 0c0-1.37-.87-2.39-2.2-2.39-1.34 0-2.19 1.02-2.19 2.39 0 1.356.85 2.387 2.19 2.387 1.33 0 2.19-1.03 2.19-2.388zm7.15 3.3l-3.45-4.73v4.73h-1.16V8.73h1.19l3.38 4.58V8.73h1.16v6.613h-1.12z"/></g></svg>