<svg xmlns="http://www.w3.org/2000/svg" viewBox="0 0 140 50"><g fill="none" fill-rule="evenodd"><rect width="140" height="50" fill="#000" rx="4"/><path fill="#FFF" d="M54.22 36.23h-2.383l-1.306-4.105H46l-1.25 4.105h-2.32l4.496-13.974h2.776L54.22 36.23zm-4.082-5.827h-3.75l1.16-3.65c.304-1.16.526-2.037.663-2.63h.05c.35 1.38.58 2.258.71 2.63l1.18 3.65zm15.643.664c0 1.714-.46 3.07-1.38 4.063-.83.885-1.86 1.327-3.09 1.327-1.32 0-2.28-.477-2.86-1.43h-.04v5.308h-2.24V29.47c0-1.077-.03-2.183-.08-3.317h1.97l.13 1.597h.04c.75-1.203 1.88-1.803 3.4-1.803 1.19 0 2.18.47 2.97 1.41.8.94 1.19 2.176 1.19 3.71zm-2.27.082c0-.98-.22-1.79-.66-2.43-.48-.67-1.13-1-1.95-1a2.3 2.3 0 0 0-1.5.55c-.45.36-.74.84-.88 1.44-.07.28-.1.5-.1.68v1.68c0 .73.23 1.35.68 1.85.45.5 1.03.75 1.75.75.84 0 1.5-.33 1.97-.98.47-.65.71-1.51.71-2.57zm13.86-.09c0 1.71-.46 3.07-1.39 4.06-.83.88-1.86 1.32-3.08 1.32-1.32 0-2.28-.48-2.86-1.43H70v5.31h-2.24V29.47c0-1.077-.03-2.183-.083-3.317h1.97l.124 1.597h.04c.75-1.203 1.88-1.803 3.4-1.803 1.19 0 2.18.47 2.97 1.41.8.94 1.19 2.176 1.19 3.71zm-2.28.08c0-.98-.22-1.79-.66-2.43-.48-.67-1.13-1-1.94-1a2.3 2.3 0 0 0-1.5.55c-.45.36-.74.84-.88 1.44-.06.28-.1.5-.1.68v1.68c0 .73.23 1.35.68 1.85.45.5 1.03.75 1.75.75.85 0 1.5-.33 1.97-.98.47-.65.71-1.51.71-2.57zm15.23 1.16c0 1.19-.41 2.15-1.24 2.9-.91.81-2.17 1.22-3.8 1.22-1.5 0-2.7-.29-3.62-.87l.52-1.87c.98.59 2.06.89 3.24.89.85 0 1.5-.19 1.97-.57.47-.38.71-.89.71-1.53 0-.57-.19-1.05-.58-1.43-.38-.39-1.03-.75-1.92-1.08-2.44-.92-3.67-2.25-3.67-4.01 0-1.15.43-2.09 1.29-2.83.85-.74 1.99-1.1 3.42-1.1 1.27 0 2.328.22 3.17.66l-.56 1.82c-.785-.43-1.675-.65-2.67-.65-.79 0-1.403.19-1.844.58a1.65 1.65 0 0 0-.56 1.262c0 .553.214 1.01.64 1.37.375.33 1.05.69 2.034 1.08 1.2.48 2.083 1.05 2.65 1.697.57.65.85 1.46.85 2.424zm7.4-4.48h-2.47v4.89c0 1.24.44 1.86 1.31 1.86.4 0 .73-.04 1-.11l.06 1.7c-.44.16-1.02.25-1.74.25-.89 0-1.58-.27-2.08-.81-.49-.54-.74-1.45-.74-2.72V27.8h-1.47v-1.68h1.47V24.3l2.2-.662v2.508h2.47v1.683zm11.13 3.27c0 1.55-.44 2.82-1.32 3.81-.92 1.02-2.15 1.53-3.69 1.53-1.47 0-2.65-.49-3.53-1.47-.87-.98-1.31-2.22-1.31-3.71 0-1.56.45-2.84 1.36-3.84.91-1 2.13-1.5 3.66-1.5 1.48 0 2.67.49 3.57 1.47.86.95 1.29 2.18 1.29 3.684zm-2.32.07c0-.93-.2-1.73-.6-2.39-.47-.81-1.14-1.21-2.01-1.21-.9 0-1.58.4-2.05 1.2-.4.66-.6 1.47-.6 2.43 0 .93.2 1.72.6 2.39.49.8 1.16 1.2 2.04 1.2.85 0 1.53-.41 2.01-1.23.41-.68.62-1.49.62-2.41zm9.59-3.06c-.22-.04-.45-.06-.7-.06-.78 0-1.39.29-1.82.89-.37.52-.56 1.19-.56 1.99v5.28h-2.24l.02-6.9c0-1.17-.02-2.22-.08-3.18h1.95l.08 1.93h.07c.24-.67.61-1.2 1.12-1.6.5-.36 1.04-.54 1.62-.54.2 0 .39.01.55.04v2.14zm10.01 2.59c0 .4-.02.74-.08 1.01h-6.71c.03.99.35 1.75.97 2.28.57.47 1.3.7 2.2.7 1 0 1.9-.16 2.72-.48l.35 1.55c-.95.42-2.08.623-3.37.623-1.56 0-2.79-.46-3.68-1.38-.89-.916-1.33-2.15-1.33-3.7 0-1.517.415-2.78 1.245-3.79.87-1.077 2.04-1.615 3.52-1.615 1.45 0 2.55.54 3.297 1.62.59.856.89 1.915.89 3.17zm-2.13-.58c.02-.67-.13-1.24-.43-1.72-.39-.63-.98-.94-1.78-.94-.73 0-1.32.3-1.78.91-.37.48-.59 1.06-.66 1.74H124zM49.4 13.66c0 1.234-.37 2.165-1.11 2.79-.685.576-1.66.865-2.92.865-.626 0-1.16-.028-1.61-.082v-6.75c.585-.09 1.215-.14 1.895-.14 1.2 0 2.107.26 2.718.785.69.59 1.03 1.436 1.03 2.536zm-1.16.03c0-.8-.21-1.416-.635-1.845-.424-.427-1.043-.64-1.86-.64-.345 0-.64.022-.884.07v5.133c.13.02.38.03.74.03.84 0 1.49-.24 1.95-.71.45-.47.69-1.15.69-2.05zm7.31 1.05c0 .76-.22 1.383-.65 1.872-.46.503-1.06.754-1.815.754-.727 0-1.305-.24-1.736-.723-.43-.48-.65-1.09-.65-1.82 0-.76.23-1.39.67-1.88.45-.49 1.05-.73 1.8-.73.73 0 1.31.24 1.75.73.42.47.63 1.078.63 1.81zm-1.14.034c0-.457-.1-.85-.297-1.175-.23-.4-.55-.6-.98-.6-.44 0-.78.2-1.01.59-.19.32-.29.72-.29 1.19 0 .45.1.85.3 1.17.24.39.57.59 1 .59.42 0 .75-.2.988-.61.21-.34.31-.73.31-1.19zm9.382-2.47l-1.55 4.95h-1.006l-.64-2.15a15.985 15.985 0 0 1-.4-1.6h-.02a11.47 11.47 0 0 1-.396 1.6l-.69 2.15h-1.02l-1.457-4.95h1.13l.56 2.353c.137.556.248 1.087.337 1.59h.02c.082-.415.22-.942.41-1.58l.7-2.362h.897l.67 2.312c.164.564.296 1.107.398 1.63h.03c.08-.51.19-1.052.34-1.63l.6-2.312h1.08zm5.7 4.95h-1.1V14.42c0-.874-.33-1.31-.996-1.31-.326 0-.59.12-.794.36-.2.24-.3.523-.3.848v2.936h-1.1V13.72a24 24 0 0 0-.04-1.417h.97l.05.774h.03c.13-.24.32-.44.57-.598.3-.19.63-.28 1-.28.46 0 .84.15 1.15.45.38.36.57.91.57 1.64v2.96zm1.935-7.22h1.098v7.22h-1.098v-7.22zM79 14.738c0 .76-.218 1.384-.653 1.873-.455.51-1.06.76-1.812.76-.727 0-1.305-.24-1.735-.72-.43-.48-.646-1.09-.646-1.82 0-.76.222-1.39.666-1.88.445-.49 1.044-.73 1.796-.73.727 0 1.31.24 1.752.73.42.47.63 1.07.63 1.81zm-1.143.035c0-.457-.098-.85-.294-1.175-.23-.395-.56-.593-.986-.593-.443 0-.778.198-1.008.593-.2.326-.3.724-.3 1.194 0 .457.1.85.29 1.175.23.394.57.592.99.592.42 0 .75-.2.98-.61.2-.34.3-.73.3-1.19zm6.465 2.48h-.988l-.082-.57h-.03c-.338.454-.82.682-1.445.682-.467 0-.845-.15-1.13-.448a1.418 1.418 0 0 1-.387-1.01c0-.604.252-1.065.76-1.384.505-.32 1.216-.476 2.133-.47v-.09c0-.653-.343-.98-1.028-.98a2.3 2.3 0 0 0-1.29.368l-.223-.72c.46-.28 1.027-.43 1.697-.43 1.29 0 1.94.69 1.94 2.05v1.82c0 .5.02.89.07 1.18zm-1.142-1.7v-.765c-1.213-.02-1.82.312-1.82.998 0 .258.07.45.21.58a.77.77 0 0 0 .538.194c.242 0 .467-.077.673-.23a.947.947 0 0 0 .41-.778zm7.39 1.7h-.975l-.052-.795h-.03c-.312.605-.843.907-1.59.907-.595 0-1.09-.234-1.485-.702-.393-.47-.59-1.077-.59-1.823 0-.8.213-1.45.642-1.946.414-.462.922-.693 1.526-.693.665 0 1.13.23 1.394.68h.02v-2.84h1.102v5.89c0 .49.012.93.04 1.34zm-1.14-2.088v-.825a1.242 1.242 0 0 0-.427-1.013c-.205-.18-.45-.27-.736-.27-.41 0-.73.162-.967.488-.234.327-.353.744-.353 1.253 0 .49.112.887.338 1.193.238.33.56.49.96.49.362 0 .65-.13.87-.4.212-.25.316-.55.316-.9zm10.546-.428c0 .76-.217 1.384-.65 1.873-.457.503-1.06.754-1.814.754-.725 0-1.303-.24-1.735-.723-.43-.48-.646-1.09-.646-1.82 0-.76.23-1.39.67-1.88.45-.49 1.05-.73 1.8-.73.73 0 1.31.24 1.75.73.42.47.63 1.08.63 1.81zm-1.14.035c0-.457-.098-.85-.294-1.175-.232-.395-.56-.593-.988-.593-.44 0-.776.198-1.008.593-.197.326-.295.724-.295 1.194 0 .46.1.85.3 1.18.24.4.57.59 1 .59.42 0 .75-.2.99-.6.21-.33.31-.73.31-1.18zm7.054 2.48h-1.1V14.42c0-.874-.33-1.31-.997-1.31-.326 0-.59.12-.793.36-.204.24-.306.523-.306.848v2.936h-1.1V13.72c0-.435-.013-.907-.04-1.417h.966l.05.774h.032c.13-.24.32-.44.57-.598.3-.19.63-.28.998-.28.46 0 .844.15 1.15.45.38.36.57.91.57 1.64v2.96zm7.4-4.126h-1.21v2.404c0 .61.215.916.64.916.198 0 .362-.016.49-.05l.03.834c-.218.082-.503.122-.855.122-.434 0-.772-.132-1.017-.396-.245-.265-.367-.71-.367-1.335v-2.49h-.72v-.82h.72v-.91l1.08-.32v1.23h1.21v.83zm5.823 4.125h-1.1v-2.81c0-.88-.333-1.33-.997-1.33-.51 0-.858.26-1.05.77-.032.11-.05.24-.05.4v2.98h-1.1v-7.22h1.1v2.99h.02c.347-.54.843-.81 1.486-.81.456 0 .832.15 1.132.45.372.38.56.93.56 1.67v2.95zm6.005-2.71c0 .2-.014.37-.04.5h-3.3c.016.49.173.86.48 1.12.278.23.638.35 1.08.35.487 0 .932-.07 1.332-.23l.172.77c-.47.21-1.02.31-1.66.31-.766 0-1.37-.22-1.806-.67-.438-.45-.656-1.06-.656-1.82 0-.74.203-1.37.61-1.86.427-.53 1.003-.79 1.73-.79.712 0 1.253.27 1.618.8.295.42.44.94.44 1.558zm-1.05-.28c.01-.32-.063-.6-.212-.84-.19-.3-.482-.46-.875-.46-.35 0-.65.15-.87.45-.18.24-.29.52-.32.86h2.29zm-94.825 10.1c.035 4.09 3.577 5.44 3.62 5.46-.02.1-.555 1.95-1.883 3.84-1.11 1.66-2.27 3.28-4.117 3.31-1.793.04-2.396-1.05-4.452-1.05-2.07 0-2.71 1.03-4.43 1.1-1.76.07-3.1-1.77-4.25-3.41-2.3-3.36-4.08-9.46-1.69-13.61 1.16-2.03 3.28-3.35 5.55-3.38 1.76-.04 3.4 1.19 4.48 1.19 1.06 0 3.08-1.47 5.16-1.25.87.03 3.35.34 4.95 2.68-.13.08-2.95 1.74-2.92 5.15zm-3.386-10.03c-.965 1.14-2.51 2.01-4.013 1.9-.197-1.53.565-3.17 1.418-4.17.964-1.13 2.638-2 3.977-2.05.17 1.6-.46 3.17-1.39 4.33z"/></g></svg>